<svg width="33" height="42" viewBox="0 0 33 42" fill="none" xmlns="http://www.w3.org/2000/svg">
<path id="Vector" d="M16.8208 29.9501C16.8749 28.618 16.8599 27.1102 17.0385 25.6092C17.1307 24.8325 16.8795 24.3158 16.3241 24.066C15.5187 23.7045 14.6338 24.2428 14.5532 25.1621C14.249 28.6556 14.2467 32.148 14.6096 35.6404C14.7813 37.2953 15.0452 38.932 15.5187 40.5299C15.5786 40.733 15.5498 40.8014 15.3436 40.8425C14.249 41.0569 13.1751 40.9839 12.115 40.6451C12.0125 40.6121 11.9157 40.5778 11.9099 40.4604C11.8754 39.7852 11.5101 39.2217 11.2658 38.6218C10.7024 37.2372 10.4812 35.7784 10.2588 34.3208C10.0445 32.9145 9.94882 31.4956 9.98224 30.0699C10.0548 26.9619 10.7923 24.0329 12.3605 21.3253C12.5563 20.9865 12.7211 20.6432 12.6301 20.2372C12.5149 19.7296 12.1427 19.3681 11.6507 19.2803C11.0769 19.1787 10.6217 19.3772 10.3049 19.9019C9.64809 20.9888 9.10999 22.1339 8.68251 23.3281C7.64089 26.2376 7.3125 29.2373 7.5395 32.3065C7.69505 34.4211 7.99348 36.5106 8.59494 38.5499C8.69058 38.8761 8.80811 39.1989 8.94868 39.508C9.08004 39.7988 9.00284 39.8753 8.69749 39.865C7.15465 39.8148 5.77312 39.3141 4.55636 38.388C2.42011 36.7604 1.16533 34.5637 0.689453 31.986C-0.178181 27.2778 0.983273 23.092 4.26715 19.5255C5.73279 17.9333 7.39892 16.5543 9.01666 15.1229C10.0133 14.2413 10.9881 13.3391 11.8846 12.3525C12.9262 11.2063 13.4251 9.85812 13.6152 8.35259C13.8526 6.46725 13.8031 4.57621 13.8134 2.68631C13.8134 2.50154 13.8065 2.31563 13.8226 2.132C13.9079 1.20017 14.6799 0.698321 15.5729 1.01083C16.7067 1.40775 17.837 1.81949 18.9605 2.24263C19.5251 2.45592 19.8258 2.8745 19.8235 3.48926C19.8177 4.7701 19.8039 6.04981 19.8166 7.33065C19.8258 8.24081 19.9191 9.14528 20.0943 10.0406C20.3385 11.2884 21.1209 12.2122 21.9689 13.0905C23.5994 14.7762 25.3888 16.3023 27.0134 17.9948C28.7545 19.8095 30.3526 21.7302 31.2237 24.1185C32.6433 28.0066 32.8461 31.9256 31.188 35.7944C30.3042 37.8576 28.7176 39.216 26.4707 39.7316C26.1516 39.8045 25.8174 39.8148 25.4902 39.8559C25.1583 39.8981 25.0996 39.743 25.1756 39.4578C25.4694 38.3435 25.6411 37.2086 25.7852 36.0669C26.0168 34.2272 26.0847 32.3795 26.0144 30.5318C25.9165 27.9268 25.5593 25.3571 24.7309 22.8684C24.4658 22.0723 24.1501 21.2968 23.7699 20.5474C23.4115 19.8403 22.7064 19.5734 22.0485 19.8847C21.4067 20.1881 21.1716 20.9215 21.5265 21.6321C23.1442 24.8724 23.6213 28.3283 23.5498 31.8959C23.4945 34.6196 23.0048 37.2862 22.5623 39.9642C22.4391 40.7079 22.0968 40.9109 21.4608 41.009C20.4169 41.1698 19.4041 41.0523 18.3959 40.782C18.1827 40.725 18.1585 40.5539 18.1043 40.4011C17.5974 38.9742 17.3404 37.4926 17.1561 35.9985C16.9164 34.0482 16.8496 32.0875 16.8231 29.9501H16.8208Z" fill="#FF4D46"/>
</svg>
