<svg width="45" height="42" viewBox="0 0 45 42" fill="none" xmlns="http://www.w3.org/2000/svg">
<path id="Vector" d="M25.3922 27.9037C26.5594 27.173 27.6392 26.4921 28.7242 25.8201C30.4692 24.7393 32.5688 25.6438 32.8766 27.638C33.0344 28.6536 32.6236 29.5082 31.7616 30.0767C29.7649 31.3951 27.7605 32.702 25.7195 33.9526C23.8116 35.1215 21.4954 33.9922 21.112 31.7604C20.8512 30.2402 20.5786 28.7226 20.3282 27.2011C20.2722 26.8587 20.1196 26.6147 19.7727 26.57C19.4401 26.5266 19.2315 26.7348 19.1141 27.0312C18.6068 28.3176 18.4685 29.6539 18.5885 31.0169C18.7737 33.1159 19.5171 35.0321 20.6021 36.8385C21.2894 37.9844 21.1498 39.2925 20.2839 40.197C19.4297 41.09 18.119 41.334 17.021 40.8064C16.6336 40.6198 16.3115 40.3605 16.0637 40.0118C13.9197 37.002 12.9821 33.6767 13.2468 30.009C13.4059 27.8028 14.0058 25.6924 14.5705 23.5717C14.6213 23.3827 14.6409 23.1987 14.6409 23.0071C14.6409 20.8877 14.6383 18.7684 14.6409 16.649C14.6409 15.9809 14.4492 15.3881 13.9367 14.932C11.6088 12.8625 10.2603 10.2309 9.37091 7.33736C9.114 6.50061 8.89881 5.65107 8.77362 4.78493C8.54409 3.19957 9.54306 1.91824 11.125 1.74834C12.6365 1.58482 13.8936 2.68474 14.0488 4.24583C14.251 6.28343 14.9083 8.15368 16.3102 9.72627C16.6297 10.0852 16.9897 10.3139 17.4878 10.4174C19.2667 10.7879 21.0338 11.2056 22.8048 11.6131C23.4308 11.7575 24.0333 11.562 24.6423 11.5007C25.2566 11.4394 25.8643 11.3078 26.4785 11.249C26.8385 11.2145 26.858 11.0894 26.7472 10.7968C26.2451 9.47205 25.7469 8.14474 25.2735 6.80976C24.7701 5.39047 25.5748 4.03633 27.0732 3.73228C28.0617 3.53172 29.2003 4.07465 29.5876 5.0481C30.5592 7.49066 31.5203 9.93833 32.3993 12.4141C32.9235 13.8883 31.8176 15.3664 30.2175 15.5401C28.6499 15.71 27.0849 15.9106 25.52 16.1048C24.9644 16.1738 24.7023 16.4484 24.6958 16.985C24.6684 19.4224 24.5941 21.8624 24.6553 24.2986C24.6853 25.4982 25.1431 26.6556 25.3883 27.905L25.3922 27.9037ZM20.3687 10.1836C22.6313 10.1926 24.4832 8.40407 24.4975 6.19784C24.5119 4.01589 22.6379 2.17758 20.3947 2.17247C18.1686 2.16736 16.3115 3.97245 16.3076 6.14674C16.3037 8.3798 18.1099 10.1747 20.3687 10.1836ZM6.54746 21.4536C7.07303 21.8522 7.55425 21.8407 7.87246 21.423C8.17111 21.0308 8.06417 20.5632 7.57642 20.1851C6.92566 19.6818 6.26055 19.195 5.61631 18.684C5.29941 18.4324 4.96816 18.3033 4.58605 18.4784C4.17916 18.6662 4.08917 19.0264 4.09178 19.4365C4.0996 20.5824 4.08526 21.7296 4.0996 22.8755C4.10482 23.2447 4.11004 23.5027 3.59099 23.3201C3.34451 23.2332 3.04195 23.2792 2.76678 23.2894C1.33876 23.3379 0.214592 24.7496 0.513239 26.1127C0.817102 27.5026 1.93996 28.2231 3.55578 28.0659C4.77515 27.9471 5.73629 26.8702 5.74151 25.594C5.74933 24.0508 5.74281 22.5063 5.74281 20.8392C6.07015 21.0896 6.30881 21.2722 6.54877 21.4549L6.54746 21.4536ZM39.8446 14.246C38.8378 14.0378 37.621 14.5475 37.0433 15.4188C36.5425 16.175 36.583 17.2226 37.1398 17.9776C37.7958 18.8642 39.0869 19.2359 40.258 18.8757C41.3378 18.5435 42.0042 17.6505 42.0094 16.4957C42.0173 15.1109 42.0081 13.7248 42.0134 12.34C42.0134 12.1931 41.9534 12.0283 42.0981 11.8648C42.3459 12.0526 42.5846 12.2378 42.8297 12.4167C43.3123 12.7693 43.7687 12.7539 44.0843 12.3809C44.4117 11.9938 44.3282 11.5339 43.8378 11.1456C43.1793 10.6256 42.5063 10.1236 41.8425 9.61002C41.5308 9.36857 41.2113 9.22038 40.8136 9.41329C40.4158 9.60746 40.3545 9.94472 40.3571 10.3344C40.3662 11.6553 40.361 12.9762 40.361 14.361C40.1602 14.315 40.0024 14.2767 39.8446 14.2448V14.246ZM39.6346 0.917969C39.2616 1.9489 38.5691 2.60937 37.5297 2.99772C38.5665 3.37969 39.2551 4.0491 39.6451 5.07109C40.0311 4.0491 40.7366 3.3963 41.7525 2.98623C40.6805 2.62086 40.0493 1.89908 39.6333 0.917969H39.6346ZM2.30121 2.69113C2.03907 3.49467 1.56437 3.9188 0.758416 4.20879C1.60349 4.44257 2.01038 4.94845 2.34033 5.69962C2.59072 4.88969 3.07716 4.47706 3.86225 4.19473C3.0576 3.92774 2.60768 3.46273 2.30121 2.6924V2.69113ZM8.35238 39.2721C8.60669 38.4749 9.09574 38.0495 9.86648 37.7506C9.07226 37.4823 8.61973 37.0352 8.34717 36.2751C8.04591 37.0097 7.63772 37.4989 6.92044 37.7608C7.61815 38.0163 8.05113 38.4992 8.35238 39.2721ZM38.4452 31.0834C38.217 30.8573 38.0905 30.5315 37.8532 30.1406C37.6471 30.9352 37.1072 31.3108 36.4773 31.6557C37.2285 31.846 37.5819 32.3851 37.9132 33.1069C38.1779 32.3379 38.6213 31.8869 39.396 31.6416C38.9891 31.4117 38.663 31.3005 38.4439 31.0846L38.4452 31.0834Z" fill="#FF4D46"/>
</svg>
